<svg width="177" height="55" viewBox="0 0 177 55" fill="none" xmlns="http://www.w3.org/2000/svg">
<path d="M12.3338 32.556L12.3532 11.7933L15.2897 11.796L15.2747 27.813L27.5694 11.8076L30.2982 11.8101L30.2787 32.5728L27.3719 32.5701L27.3869 16.5828L15.0626 32.5586L12.3338 32.556ZM51.6613 11.8302L54.6274 11.833L54.6079 32.5957L51.6418 32.5929L51.6613 11.8302ZM39.7181 32.5817L36.752 32.5789L36.7715 11.8162L39.7376 11.819L39.7181 32.5817ZM51.9174 23.3389L39.4301 23.3272L39.4326 20.7467L51.9199 20.7584L51.9174 23.3389ZM70.3669 32.8478C68.785 32.8463 67.322 32.5878 65.9778 32.0725C64.6535 31.5373 63.4974 30.7947 62.5096 29.8446C61.5416 28.8748 60.7813 27.747 60.2289 26.4611C59.6764 25.1753 59.4009 23.7612 59.4023 22.2188C59.4038 20.6764 59.6819 19.2629 60.2368 17.9781C60.7917 16.6933 61.5639 15.5768 62.5535 14.6285C63.5431 13.6605 64.7006 12.9201 66.026 12.4072C67.3711 11.8746 68.8346 11.609 70.4165 11.6105C72.0182 11.612 73.4911 11.8902 74.8353 12.4452C76.1992 12.9803 77.3552 13.7823 78.3033 14.851L76.3736 16.7178C75.5834 15.8865 74.6942 15.2727 73.7058 14.8763C72.7175 14.4601 71.6598 14.2515 70.5327 14.2504C69.366 14.2493 68.2783 14.4461 67.2694 14.8406C66.2804 15.2352 65.4197 15.788 64.6874 16.4992C63.9551 17.2104 63.3808 18.0601 62.9646 19.0484C62.5682 20.017 62.3695 21.0747 62.3684 22.2216C62.3674 23.3685 62.5641 24.4365 62.9586 25.4255C63.373 26.3949 63.9456 27.2358 64.6766 27.9484C65.4076 28.6609 66.2672 29.2154 67.2556 29.6118C68.2637 30.0082 69.3511 30.207 70.5177 30.2081C71.6448 30.2091 72.7029 30.0124 73.692 29.6178C74.6811 29.2035 75.5715 28.5716 76.3633 27.722L78.2895 29.5925C77.3393 30.6594 76.1818 31.469 74.8169 32.0214C73.4717 32.5738 71.9884 32.8493 70.3669 32.8478ZM86.383 32.6255L86.4007 13.6721L87.1415 14.444L79.311 14.4367L79.3135 11.8561L96.4279 11.8722L96.4254 14.4527L88.5949 14.4454L89.3075 13.6748L89.2897 32.6282L86.383 32.6255ZM100.013 32.6383L100.033 11.8756L108.13 11.8832C109.95 11.8849 111.502 12.1731 112.786 12.7477C114.071 13.3224 115.059 14.1538 115.75 15.242C116.441 16.3303 116.786 17.6258 116.785 19.1286C116.783 20.6314 116.436 21.9263 115.743 23.0132C115.05 24.0804 114.06 24.91 112.774 25.502C111.488 26.0742 109.936 26.3595 108.117 26.3578L101.651 26.3517L102.987 24.9589L102.979 32.6411L100.013 32.6383ZM102.986 25.2555L101.653 23.7712L108.03 23.7772C109.928 23.779 111.362 23.3749 112.332 22.5651C113.322 21.7553 113.817 20.6089 113.818 19.1258C113.82 17.6428 113.327 16.4954 112.339 15.6838C111.37 14.8721 109.937 14.4654 108.039 14.4636L101.662 14.4576L102.998 12.9758L102.986 25.2555ZM130.53 32.9042C128.948 32.9028 127.476 32.6344 126.112 32.0992C124.768 31.5641 123.602 30.8215 122.614 29.8714C121.626 28.9015 120.856 27.7737 120.303 26.4879C119.751 25.202 119.475 23.7978 119.477 22.2752C119.478 20.7526 119.756 19.3489 120.311 18.0641C120.866 16.7793 121.638 15.6628 122.628 14.7146C123.618 13.7466 124.785 12.9963 126.13 12.4636C127.475 11.931 128.949 11.6654 130.55 11.667C132.132 11.6684 133.585 11.9367 134.91 12.4719C136.254 12.9873 137.42 13.7299 138.408 14.6998C139.415 15.6499 140.185 16.7678 140.718 18.0536C141.271 19.3394 141.546 20.7536 141.545 22.2959C141.543 23.8383 141.265 25.2519 140.71 26.5367C140.175 27.8215 139.403 28.9479 138.393 29.9159C137.404 30.8641 136.236 31.6045 134.891 32.1371C133.566 32.65 132.112 32.9057 130.53 32.9042ZM130.533 30.2644C131.68 30.2655 132.738 30.0687 133.707 29.6742C134.696 29.2796 135.547 28.7267 136.26 28.0155C136.992 27.2846 137.556 26.4348 137.953 25.4663C138.369 24.4977 138.577 23.44 138.578 22.2931C138.58 21.1462 138.373 20.0881 137.959 19.1188C137.564 18.1495 137.001 17.3086 136.27 16.5961C135.559 15.8637 134.709 15.2994 133.721 14.903C132.752 14.5066 131.695 14.3079 130.548 14.3068C129.381 14.3057 128.303 14.5024 127.314 14.897C126.345 15.2915 125.494 15.8543 124.762 16.5852C124.029 17.2964 123.455 18.1363 123.039 19.1048C122.643 20.0734 122.444 21.1311 122.443 22.278C122.442 23.4249 122.639 24.483 123.033 25.4523C123.447 26.4216 124.02 27.2724 124.751 28.0047C125.482 28.7173 126.332 29.2718 127.3 29.6682C128.289 30.0646 129.366 30.2633 130.533 30.2644ZM146.33 32.6818L146.349 11.9191L149.286 11.9218L149.271 27.9388L161.565 11.9334L164.294 11.9359L164.275 32.6986L161.368 32.6959L161.383 16.7086L149.059 32.6843L146.33 32.6818Z" fill="#313131"/>
<path d="M176 40.0427L176 11.8647" stroke="#313131" stroke-width="1.48305"/>
<path d="M1.0022 31.8611L1.00018 1.48342" stroke="#313131" stroke-width="1.48305"/>
<line y1="-0.741526" x2="102.554" y2="-0.741526" transform="matrix(0.999999 0.00129851 -0.00129962 0.999999 61.8049 1.48315)" stroke="#313131" stroke-width="1.48305"/>
<line y1="-0.741526" x2="102.554" y2="-0.741526" transform="matrix(0.999999 0.00129851 -0.00129962 0.999999 11.3813 41.5256)" stroke="#313131" stroke-width="1.48305"/>
<path d="M12.3513 50.0436L12.3565 44.5415L16.4052 44.5453L16.4044 45.4173L13.1135 45.4143L13.3525 45.1861L13.348 50.0446L12.3513 50.0436ZM20.3375 50.1134C19.8807 50.113 19.4621 50.0088 19.0816 49.8008C18.7081 49.5859 18.4073 49.2707 18.1793 48.8552C17.9582 48.4398 17.848 47.9206 17.8486 47.2977C17.8492 46.6748 17.9569 46.1559 18.1719 45.7408C18.3937 45.3258 18.6916 45.0146 19.0655 44.8073C19.4464 44.6001 19.8721 44.4967 20.3427 44.4971C20.8826 44.4976 21.36 44.6157 21.775 44.8514C22.1901 45.0871 22.5185 45.4162 22.7603 45.8386C23.0022 46.254 23.1228 46.7421 23.1223 47.3027C23.1218 47.8633 23.0002 48.3545 22.7576 48.7765C22.515 49.1984 22.1859 49.5269 21.7704 49.7618C21.355 49.9967 20.8773 50.1139 20.3375 50.1134ZM17.4185 52.0624L17.4255 44.5463L18.3806 44.5472L18.3792 46.0317L18.3157 47.3085L18.4183 48.5855L18.4151 52.0633L17.4185 52.0624ZM20.2552 49.2413C20.6082 49.2416 20.9232 49.1623 21.2002 49.0034C21.4841 48.8445 21.7057 48.6198 21.8652 48.3293C22.0316 48.0318 22.115 47.6893 22.1153 47.3017C22.1157 46.9072 22.033 46.568 21.8671 46.2841C21.7082 45.9933 21.487 45.7682 21.2033 45.6087C20.9267 45.4493 20.6118 45.3694 20.2589 45.3691C19.9128 45.3687 19.5978 45.448 19.3139 45.6069C19.037 45.7659 18.8153 45.9906 18.6489 46.2811C18.4895 46.5647 18.4095 46.9038 18.4092 47.2983C18.4088 47.6858 18.4881 48.0285 18.647 48.3262C18.8128 48.6171 19.0341 48.8422 19.3108 49.0016C19.5944 49.1611 19.9092 49.241 20.2552 49.2413ZM24.694 52.1315C24.431 52.1312 24.1749 52.086 23.9259 51.9958C23.6768 51.9125 23.4624 51.7877 23.2826 51.6215L23.7089 50.8744C23.8472 51.006 23.9994 51.1065 24.1654 51.1759C24.3314 51.2453 24.5079 51.28 24.6948 51.2802C24.937 51.2804 25.1378 51.2183 25.2971 51.0939C25.4564 50.9695 25.6054 50.7482 25.7441 50.4299L26.0874 49.6724L26.1913 49.5479L28.3553 44.5565L29.3312 44.5574L26.6575 50.6073C26.4979 50.9947 26.3177 51.299 26.1168 51.5203C25.9228 51.7416 25.7081 51.8971 25.4727 51.9869C25.2373 52.0835 24.9777 52.1318 24.694 52.1315ZM26.0038 50.2329L23.4968 44.552L24.535 44.5529L26.6689 49.4549L26.0038 50.2329ZM30.3464 50.0605L30.3515 44.5584L35.4488 44.5632L35.4436 50.0653L34.447 50.0644L34.4516 45.1851L34.6901 45.4345L31.1086 45.4311L31.3476 45.1822L31.343 50.0615L30.3464 50.0605ZM37.372 50.0671L37.3772 44.565L42.4744 44.5698L42.4693 50.0719L41.4727 50.071L41.4772 45.1917L41.7158 45.4411L38.1342 45.4377L38.3732 45.1888L38.3686 50.068L37.372 50.0671ZM47.7716 50.0769L47.7727 48.9142L47.721 48.6961L47.7229 46.7133C47.7233 46.2911 47.599 45.9657 47.3501 45.7371C47.1081 45.5015 46.7414 45.3835 46.25 45.3831C45.9247 45.3828 45.6063 45.4378 45.2947 45.5483C44.9832 45.6518 44.7201 45.7934 44.5054 45.9732L44.0908 45.2253C44.3748 44.9972 44.7141 44.8245 45.1087 44.7072C45.5102 44.583 45.929 44.5211 46.365 44.5215C47.1194 44.5222 47.7005 44.7062 48.1085 45.0734C48.5165 45.4406 48.7202 46.0013 48.7195 46.7557L48.7163 50.0778L47.7716 50.0769ZM45.9652 50.1375C45.5569 50.1371 45.1971 50.0675 44.8858 49.9288C44.5814 49.7901 44.3462 49.5996 44.1804 49.3572C44.0145 49.1079 43.9317 48.8275 43.932 48.5161C43.9323 48.2185 44.0017 47.9486 44.1404 47.7065C44.286 47.4644 44.518 47.2709 44.8365 47.1258C45.1619 46.9808 45.598 46.9085 46.1447 46.909L47.8888 46.9107L47.8881 47.627L46.1856 47.6254C45.6873 47.6249 45.3515 47.7077 45.1784 47.8736C45.0052 48.0395 44.9185 48.2402 44.9183 48.4755C44.918 48.7454 45.0251 48.9635 45.2395 49.1298C45.4539 49.2892 45.7514 49.369 46.132 49.3694C46.5058 49.3698 46.8311 49.287 47.1081 49.1212C47.392 48.9553 47.5964 48.7133 47.7213 48.395L47.9179 49.0804C47.7861 49.4056 47.554 49.6649 47.2216 49.8584C46.8893 50.0449 46.4704 50.1379 45.9652 50.1375ZM57.2853 50.0858L55.1597 47.4054L55.9803 46.9079L58.4584 50.0869L57.2853 50.0858ZM53.2989 50.0821L53.3041 44.5799L54.3007 44.5809L54.2955 50.083L53.2989 50.0821ZM53.9966 47.7573L53.9974 46.906L55.8142 46.9077L55.8134 47.759L53.9966 47.7573ZM56.0628 47.4478L55.139 47.3223L57.249 44.5836L58.3183 44.5847L56.0628 47.4478ZM61.6774 50.1522C61.1237 50.1517 60.6325 50.0301 60.2036 49.7875C59.7747 49.5449 59.4359 49.2123 59.1872 48.7899C58.9384 48.3606 58.8143 47.876 58.8148 47.3362C58.8153 46.7894 58.9403 46.3051 59.1899 45.8831C59.4394 45.4612 59.7789 45.1328 60.2082 44.8979C60.6375 44.656 61.129 44.5354 61.6827 44.5359C62.2294 44.5364 62.7172 44.658 63.1461 44.9006C63.5819 45.1363 63.9207 45.4654 64.1626 45.8878C64.4113 46.3033 64.5354 46.7879 64.5349 47.3415C64.5344 47.8883 64.4094 48.3726 64.1598 48.7946C63.9172 49.2165 63.5778 49.5484 63.1415 49.7902C62.7122 50.0321 62.2242 50.1527 61.6774 50.1522ZM61.6782 49.2802C62.0312 49.2805 62.3462 49.2012 62.6232 49.0423C62.9071 48.8834 63.1287 48.6587 63.2882 48.3681C63.4477 48.0707 63.5276 47.7282 63.5279 47.3406C63.5283 46.9461 63.449 46.6069 63.2901 46.323C63.1312 46.0322 62.9099 45.807 62.6263 45.6476C62.3497 45.4882 62.0348 45.4083 61.6819 45.4079C61.3289 45.4076 61.0139 45.4869 60.7369 45.6458C60.4599 45.8047 60.2383 46.0295 60.0719 46.32C59.9055 46.6036 59.8222 46.9426 59.8218 47.3371C59.8214 47.7247 59.9042 48.0674 60.07 48.3651C60.2358 48.6559 60.4571 48.8811 60.7337 49.0405C61.0104 49.2 61.3253 49.2799 61.6782 49.2802ZM65.9715 50.094L65.9766 44.5918L67.0044 44.5928L69.3675 48.6645L68.9522 48.6641L71.3853 44.5969L72.3196 44.5978L72.3145 50.0999L71.4113 50.0991L71.4154 45.7181L71.5814 45.8117L69.3564 49.4743L68.9203 49.4738L66.6919 45.7345L66.8891 45.6931L66.885 50.0948L65.9715 50.094ZM74.2542 50.1017L74.2594 44.5996L79.3566 44.6044L79.3515 50.1065L78.3549 50.1056L78.3594 45.2263L78.598 45.4757L75.0164 45.4724L75.2554 45.2234L75.2508 50.1027L74.2542 50.1017ZM84.6538 50.1115L84.6549 48.9488L84.6032 48.7307L84.6051 46.7479C84.6055 46.3257 84.4812 46.0003 84.2323 45.7717C83.9903 45.5362 83.6236 45.4182 83.1322 45.4177C82.8069 45.4174 82.4885 45.4725 82.1769 45.5829C81.8654 45.6864 81.6023 45.828 81.3876 46.0078L80.973 45.2599C81.257 45.0318 81.5963 44.8591 81.9909 44.7418C82.3924 44.6176 82.8112 44.5557 83.2472 44.5561C84.0016 44.5569 84.5827 44.7408 84.9907 45.108C85.3987 45.4752 85.6024 46.036 85.6017 46.7903L85.5985 50.1124L84.6538 50.1115ZM82.8474 50.1721C82.4391 50.1717 82.0793 50.1022 81.768 49.9634C81.4636 49.8247 81.2284 49.6342 81.0626 49.3918C80.8967 49.1425 80.8139 48.8621 80.8142 48.5507C80.8145 48.2531 80.8839 47.9832 81.0226 47.7411C81.1681 47.499 81.4002 47.3055 81.7187 47.1604C82.0441 47.0154 82.4802 46.9431 83.0269 46.9437L84.771 46.9453L84.7703 47.6616L83.0678 47.66C82.5695 47.6595 82.2337 47.7423 82.0606 47.9082C81.8874 48.0742 81.8007 48.2748 81.8005 48.5101C81.8002 48.78 81.9073 48.9981 82.1217 49.1644C82.3361 49.3238 82.6336 49.4037 83.0142 49.404C83.388 49.4044 83.7133 49.3216 83.9903 49.1558C84.2742 48.99 84.4786 48.7479 84.6035 48.4297L84.8001 49.115C84.6683 49.4402 84.4362 49.6995 84.1038 49.893C83.7714 50.0795 83.3526 50.1726 82.8474 50.1721ZM87.3931 50.1141L87.3983 44.6119L88.3949 44.6129L88.3927 46.9487L91.5279 46.9516L91.5301 44.6158L92.5267 44.6168L92.5215 50.1189L91.5249 50.1179L91.5271 47.8133L88.3919 47.8103L88.3897 50.115L87.3931 50.1141ZM94.4593 50.1207L94.4645 44.6186L95.4611 44.6195L95.4574 48.6267L98.8351 44.6227L99.7382 44.6235L99.7331 50.1257L98.7365 50.1247L98.7402 46.1175L95.3729 50.1216L94.4593 50.1207ZM101.667 50.1275L101.673 44.6253L102.669 44.6263L102.666 48.6335L106.043 44.6295L106.946 44.6303L106.941 50.1324L105.945 50.1315L105.948 46.1243L102.581 50.1283L101.667 50.1275ZM104.248 43.9115C103.743 43.911 103.345 43.7895 103.054 43.547C102.771 43.2976 102.626 42.941 102.619 42.4773L103.294 42.4779C103.301 42.7409 103.387 42.9486 103.553 43.1011C103.726 43.2535 103.954 43.3298 104.238 43.3301C104.522 43.3304 104.75 43.2544 104.923 43.1023C105.097 42.9502 105.187 42.7427 105.194 42.4797L105.89 42.4804C105.882 42.9441 105.733 43.3003 105.442 43.5492C105.151 43.7912 104.753 43.9119 104.248 43.9115Z" fill="#BD0F0F"/>
<path d="M152.014 5.82503L162.142 5.86L152.313 15.949L152.014 5.82503Z" fill="#BD0F0F"/>
</svg>
